<?xml version="1.0" encoding="UTF-8" standalone="no"?>
<!-- Created with Inkscape (http://www.inkscape.org/) -->

<svg
   width="140mm"
   height="140mm"
   viewBox="0 0 140 140"
   version="1.1"
   id="svg1"
   xml:space="preserve"
   inkscape:version="1.4 (86a8ad7, 2024-10-11)"
   sodipodi:docname="Y white.svg"
   xmlns:inkscape="http://www.inkscape.org/namespaces/inkscape"
   xmlns:sodipodi="http://sodipodi.sourceforge.net/DTD/sodipodi-0.dtd"
   xmlns:xlink="http://www.w3.org/1999/xlink"
   xmlns="http://www.w3.org/2000/svg"
   xmlns:svg="http://www.w3.org/2000/svg"><sodipodi:namedview
     id="namedview1"
     pagecolor="#ffffff"
     bordercolor="#000000"
     borderopacity="0.25"
     inkscape:showpageshadow="2"
     inkscape:pageopacity="0.0"
     inkscape:pagecheckerboard="0"
     inkscape:deskcolor="#d1d1d1"
     inkscape:document-units="mm"
     inkscape:zoom="0.73851712"
     inkscape:cx="31.820522"
     inkscape:cy="99.52376"
     inkscape:window-width="1920"
     inkscape:window-height="1009"
     inkscape:window-x="-8"
     inkscape:window-y="-8"
     inkscape:window-maximized="1"
     inkscape:current-layer="layer1" /><defs
     id="defs1"><linearGradient
       id="linearGradient1"
       inkscape:collect="always"><stop
         style="stop-color:#ffffff;stop-opacity:1;"
         offset="0.10659898"
         id="stop1" /><stop
         style="stop-color:#1da1f2;stop-opacity:1;"
         offset="0.87648058"
         id="stop2" /></linearGradient><linearGradient
       inkscape:collect="always"
       xlink:href="#linearGradient1"
       id="linearGradient2"
       x1="98.701439"
       y1="139.13593"
       x2="98.701439"
       y2="259.8696"
       gradientUnits="userSpaceOnUse"
       gradientTransform="translate(-37.008712,-129.19839)" /></defs><g
     inkscape:label="Warstwa 1"
     inkscape:groupmode="layer"
     id="layer1"><rect
       style="fill:#000000;stroke-width:3"
       id="rect2"
       width="154.05309"
       height="157.63571"
       x="-7.8817854"
       y="-11.464415" /><path
       style="fill:url(#linearGradient2)"
       d="m 34.815068,135.43601 c -0.137533,0.0681 -0.927575,-9.59972 4.857105,-29.85441 C 44.555143,88.484181 56.487789,78.347401 56.383553,78.175381 56.284573,78.012031 44.34643,62.340721 29.854347,43.350251 15.362264,24.359781 3.4132623,8.6733014 3.3010083,8.4914014 c -0.162659,-0.26359 4.329387,-0.33073 22.1256307,-0.33073 H 47.756366 L 63.211528,28.651691 c 8.50033,11.27006 15.57422,20.49677 15.71974,20.50381 0.14552,0.007 8.42036,-9.21038 18.38854,-20.48315 l 18.123952,-20.4959396 10.66263,-0.008 c 8.83711,-0.006 10.6264,0.0528 10.45104,0.3463 C 120.46894,35.446377 49.487149,84.352064 65.287728,116.0498 l 8.806499,19.80272 -7.263296,-4.29916 c 0,0 -12.038798,-6.01014 -32.015863,3.88265 z M 70.726308,58.780761 41.441363,20.066921 h -6.610951 c -4.65597,0 -6.582506,0.0853 -6.514763,0.28856 0.0529,0.15871 14.004193,17.88181 35.819519,46.39071 0,0 7.26906,-7.06924 6.59114,-7.96543 z"
       id="path1"
       sodipodi:nodetypes="sssssscsssccscccsscssss" /></g></svg>
